<svg xmlns="http://www.w3.org/2000/svg">

    <symbol id='icon-favorite' viewBox="0 0 24 24" fill="none" xmlns="http://www.w3.org/2000/svg">
        <path d="M16.5 3C19.5376 3 22 5.5 22 9C22 16 14.5 20 12 21.5C9.5 20 2 16 2 9C2 5.5 4.5 3 7.5 3C9.35997 3 11 4 12 5C13 4 14.64 3 16.5 3ZM12.9339 18.6038C13.8155 18.0485 14.61 17.4955 15.3549 16.9029C18.3337 14.533 20 11.9435 20 9C20 6.64076 18.463 5 16.5 5C15.4241 5 14.2593 5.56911 13.4142 6.41421L12 7.82843L10.5858 6.41421C9.74068 5.56911 8.5759 5 7.5 5C5.55906 5 4 6.6565 4 9C4 11.9435 5.66627 14.533 8.64514 16.9029C9.39 17.4955 10.1845 18.0485 11.0661 18.6038C11.3646 18.7919 11.6611 18.9729 12 19.1752C12.3389 18.9729 12.6354 18.7919 12.9339 18.6038Z" fill="currentColor"/>
    </symbol>

    <symbol id='icon-auth' viewBox="0 0 16 21" fill="none" xmlns="http://www.w3.org/2000/svg">
        <path d="M0 21C0 16.5817 3.58172 13 8 13C12.4183 13 16 16.5817 16 21H14C14 17.6863 11.3137 15 8 15C4.68629 15 2 17.6863 2 21H0ZM8 12C4.685 12 2 9.315 2 6C2 2.685 4.685 0 8 0C11.315 0 14 2.685 14 6C14 9.315 11.315 12 8 12ZM8 10C10.21 10 12 8.21 12 6C12 3.79 10.21 2 8 2C5.79 2 4 3.79 4 6C4 8.21 5.79 10 8 10Z" fill="currentColor"/>
    </symbol>

    <symbol id='icon-genre' viewBox="0 0 20 20" fill="none" xmlns="http://www.w3.org/2000/svg">
        <path d="M5 9.5C2.51472 9.5 0.5 7.48528 0.5 5C0.5 2.51472 2.51472 0.5 5 0.5C7.48528 0.5 9.5 2.51472 9.5 5C9.5 7.48528 7.48528 9.5 5 9.5ZM5 19.5C2.51472 19.5 0.5 17.4853 0.5 15C0.5 12.5147 2.51472 10.5 5 10.5C7.48528 10.5 9.5 12.5147 9.5 15C9.5 17.4853 7.48528 19.5 5 19.5ZM15 9.5C12.5147 9.5 10.5 7.48528 10.5 5C10.5 2.51472 12.5147 0.5 15 0.5C17.4853 0.5 19.5 2.51472 19.5 5C19.5 7.48528 17.4853 9.5 15 9.5ZM15 19.5C12.5147 19.5 10.5 17.4853 10.5 15C10.5 12.5147 12.5147 10.5 15 10.5C17.4853 10.5 19.5 12.5147 19.5 15C19.5 17.4853 17.4853 19.5 15 19.5ZM5 7.5C6.38071 7.5 7.5 6.38071 7.5 5C7.5 3.61929 6.38071 2.5 5 2.5C3.61929 2.5 2.5 3.61929 2.5 5C2.5 6.38071 3.61929 7.5 5 7.5ZM5 17.5C6.38071 17.5 7.5 16.3807 7.5 15C7.5 13.6193 6.38071 12.5 5 12.5C3.61929 12.5 2.5 13.6193 2.5 15C2.5 16.3807 3.61929 17.5 5 17.5ZM15 7.5C16.3807 7.5 17.5 6.38071 17.5 5C17.5 3.61929 16.3807 2.5 15 2.5C13.6193 2.5 12.5 3.61929 12.5 5C12.5 6.38071 13.6193 7.5 15 7.5ZM15 17.5C16.3807 17.5 17.5 16.3807 17.5 15C17.5 13.6193 16.3807 12.5 15 12.5C13.6193 12.5 12.5 13.6193 12.5 15C12.5 16.3807 13.6193 17.5 15 17.5Z" fill="currentColor"/>
    </symbol>

    <symbol id='icon-search' viewBox="0 0 21 21" fill="none" xmlns="http://www.w3.org/2000/svg">
        <path d="M16.031 14.6168L20.3137 18.8995L18.8995 20.3137L14.6168 16.031C13.0769 17.263 11.124 18 9 18C4.032 18 0 13.968 0 9C0 4.032 4.032 0 9 0C13.968 0 18 4.032 18 9C18 11.124 17.263 13.0769 16.031 14.6168ZM14.0247 13.8748C15.2475 12.6146 16 10.8956 16 9C16 5.1325 12.8675 2 9 2C5.1325 2 2 5.1325 2 9C2 12.8675 5.1325 16 9 16C10.8956 16 12.6146 15.2475 13.8748 14.0247L14.0247 13.8748Z" fill="currentColor"/>
    </symbol>

    <symbol id='icon-reset' viewBox="0 0 24 24" fill="none" xmlns="http://www.w3.org/2000/svg">
        <path d="M12 4C14.7486 4 17.1749 5.38626 18.6156 7.5H16V9.5H22V3.5H20V5.99936C18.1762 3.57166 15.2724 2 12 2C6.47715 2 2 6.47715 2 12H4C4 7.58172 7.58172 4 12 4ZM20 12C20 16.4183 16.4183 20 12 20C9.25144 20 6.82508 18.6137 5.38443 16.5H8V14.5H2V20.5H4V18.0006C5.82381 20.4283 8.72764 22 12 22C17.5228 22 22 17.5228 22 12H20Z" fill="currentColor"/>
    </symbol>

    <symbol id='icon-favorite' viewBox="0 0 24 24" fill="none" xmlns="http://www.w3.org/2000/svg">
        <path d="M16.5 3C19.5376 3 22 5.5 22 9C22 16 14.5 20 12 21.5C9.5 20 2 16 2 9C2 5.5 4.5 3 7.5 3C9.35997 3 11 4 12 5C13 4 14.64 3 16.5 3ZM12.9339 18.6038C13.8155 18.0485 14.61 17.4955 15.3549 16.9029C18.3337 14.533 20 11.9435 20 9C20 6.64076 18.463 5 16.5 5C15.4241 5 14.2593 5.56911 13.4142 6.41421L12 7.82843L10.5858 6.41421C9.74068 5.56911 8.5759 5 7.5 5C5.55906 5 4 6.6565 4 9C4 11.9435 5.66627 14.533 8.64514 16.9029C9.39 17.4955 10.1845 18.0485 11.0661 18.6038C11.3646 18.7919 11.6611 18.9729 12 19.1752C12.3389 18.9729 12.6354 18.7919 12.9339 18.6038Z" fill="currentColor"/>
    </symbol>

    <symbol id='icon-close' viewBox="0 0 24 24" fill="none" xmlns="http://www.w3.org/2000/svg">
        <path d="M10.5859 12L2.79297 4.20706L4.20718 2.79285L12.0001 10.5857L19.793 2.79285L21.2072 4.20706L13.4143 12L21.2072 19.7928L19.793 21.2071L12.0001 13.4142L4.20718 21.2071L2.79297 19.7928L10.5859 12Z" fill="currentColor"/>
    </symbol>

    <symbol id='icon-vk' viewBox="0 0 19 11" fill="none" xmlns="http://www.w3.org/2000/svg">
        <path fill-rule="evenodd" clip-rule="evenodd" d="M18.4875 1.37968C18.6262 0.985106 18.4875 0.698125 17.8729 0.698125H15.8308C15.3153 0.698125 15.0774 0.949207 14.9387 1.21829C14.9387 1.21829 13.8879 3.51408 12.4207 5.00273C11.9449 5.4332 11.7268 5.57669 11.4691 5.57669C11.3303 5.57669 11.1519 5.4332 11.1519 5.03862V1.36173C11.1519 0.895411 10.9933 0.680176 10.5571 0.680176H7.34533C7.02811 0.680176 6.82988 0.895411 6.82988 1.11065C6.82988 1.55907 7.56341 1.66666 7.64271 2.92217V5.64843C7.64271 6.24034 7.52379 6.34793 7.26603 6.34793C6.57213 6.34793 4.88694 4.03419 3.87581 1.39763C3.67752 0.877462 3.47929 0.680176 2.96384 0.680176H0.901906C0.307142 0.680176 0.208008 0.93131 0.208008 1.20034C0.208008 1.68461 0.901906 4.12389 3.43961 7.35236C5.12485 9.55846 7.52379 10.7422 9.6848 10.7422C10.9933 10.7422 11.1519 10.4732 11.1519 10.0248V8.3568C11.1519 7.81868 11.2708 7.72904 11.6872 7.72904C11.9846 7.72904 12.5199 7.87248 13.7292 8.9307C15.117 10.1862 15.355 10.7602 16.1282 10.7602H18.1703C18.765 10.7602 19.0426 10.4911 18.884 9.97098C18.7056 9.45087 18.0315 8.69757 17.1591 7.80073C16.6833 7.29857 15.9696 6.74256 15.7515 6.47347C15.4541 6.1148 15.5334 5.97131 15.7515 5.64843C15.7317 5.64843 18.2297 2.45585 18.4875 1.37968Z" fill="currentColor"/>
    </symbol>

    <symbol id='icon-telegram' viewBox="0 0 17 15" fill="none" xmlns="http://www.w3.org/2000/svg">
        <path d="M0.600573 6.85877C2.28392 5.93153 4.163 5.15765 5.91872 4.37981C8.93924 3.10577 11.9718 1.85381 15.0349 0.688246C15.6309 0.489646 16.7017 0.295426 16.8067 1.17863C16.7492 2.42879 16.5127 3.67163 16.3504 4.91447C15.9387 7.64759 15.4627 10.3713 14.9986 13.0955C14.8387 14.0028 13.702 14.4726 12.9747 13.8919C11.2268 12.7112 9.46544 11.5421 7.73984 10.334C7.17458 9.75965 7.69874 8.93483 8.20358 8.52467C9.64322 7.10591 11.17 5.90051 12.5344 4.40843C12.9024 3.51965 11.815 4.26869 11.4563 4.49819C9.48542 5.85635 7.56278 7.29743 5.48486 8.49107C4.42346 9.07535 3.18638 8.57603 2.12546 8.24999C1.17421 7.85615 -0.219723 7.45937 0.600477 6.85883L0.600573 6.85877Z" fill="currentColor" />
    </symbol>

    <symbol id='icon-group' viewBox="0 0 12 19" fill="none" xmlns="http://www.w3.org/2000/svg">
        <path d="M7.91902 13.2622L10.5725 15.8238C11.116 16.3474 11.116 17.1978 10.5725 17.722C10.0294 18.2462 9.14932 18.2462 8.60687 17.722L5.99801 15.2048L3.39142 17.722C3.11963 17.9838 2.76349 18.1149 2.40735 18.1149C2.05178 18.1149 1.69621 17.9838 1.42441 17.722C0.881398 17.1978 0.881398 16.348 1.42385 15.8238L4.07758 13.2622C3.1114 13.0497 2.17958 12.6802 1.32132 12.1604C0.671803 11.7651 0.476693 10.9369 0.885942 10.3094C1.29406 9.68105 2.15232 9.49189 2.80297 9.8872C4.74612 11.0671 7.24933 11.0674 9.19362 9.8872C9.84428 9.49189 10.7023 9.68105 11.1112 10.3094C11.5205 10.9364 11.3248 11.7651 10.6753 12.1604C9.81701 12.6807 8.8852 13.0497 7.91902 13.2622Z" fill="currentColor"/>
        <path fill-rule="evenodd" clip-rule="evenodd" d="M1.24023 4.94193C1.24023 7.46791 3.36913 9.52263 5.98679 9.52263C8.60502 9.52263 10.7333 7.46791 10.7333 4.94193C10.7333 2.41513 8.60502 0.359863 5.98679 0.359863C3.36913 0.359863 1.24023 2.41513 1.24023 4.94193ZM7.95202 4.94145C7.95202 3.89531 7.07048 3.04463 5.98672 3.04463C4.90381 3.04463 4.02141 3.89531 4.02141 4.94145C4.02141 5.98676 4.90381 6.83799 5.98672 6.83799C7.07048 6.83799 7.95202 5.98676 7.95202 4.94145Z" fill="currentColor"/>
    </symbol>

    <symbol  id='icon-youtube' viewBox="0 0 16 12" fill="none" xmlns="http://www.w3.org/2000/svg">
        <path fill-rule="evenodd" clip-rule="evenodd" d="M14.0008 1.04957C14.6617 1.23093 15.1822 1.7653 15.3588 2.4439C15.6798 3.67379 15.6798 6.23997 15.6798 6.23997C15.6798 6.23997 15.6798 8.80606 15.3588 10.036C15.1822 10.7146 14.6617 11.249 14.0008 11.4305C12.8031 11.76 7.99982 11.76 7.99982 11.76C7.99982 11.76 3.1966 11.76 1.99878 11.4305C1.33786 11.249 0.817366 10.7146 0.640726 10.036C0.319824 8.80606 0.319824 6.23997 0.319824 6.23997C0.319824 6.23997 0.319824 3.67379 0.640726 2.4439C0.817366 1.7653 1.33786 1.23093 1.99878 1.04957C3.1966 0.719971 7.99982 0.719971 7.99982 0.719971C7.99982 0.719971 12.8031 0.719971 14.0008 1.04957ZM6.55979 4.0802V8.88021L10.3998 6.4803L6.55979 4.0802Z" fill="currentColor" />
    </symbol>

    <symbol id='icon-favoriteTrue' viewBox="0 0 24 24" fill="none" xmlns="http://www.w3.org/2000/svg">
        <path d="M16.5 3C19.5376 3 22 5.5 22 9C22 16 14.5 20 12 21.5C9.5 20 2 16 2 9C2 5.5 4.5 3 7.5 3C9.35997 3 11 4 12 5C13 4 14.64 3 16.5 3Z" fill="#B4A9FF"/>
    </symbol>

    <symbol id='icon-email' viewBox="0 0 24 25" fill="none" xmlns="http://www.w3.org/2000/svg">
        <path d="M21 3.75C21.5523 3.75 22 4.19772 22 4.75V20.7566C22 21.3052 21.5447 21.75 21.0082 21.75H2.9918C2.44405 21.75 2 21.3051 2 20.7566V19.75H20V8.05L12 15.25L2 6.25V4.75C2 4.19772 2.44772 3.75 3 3.75H21ZM8 15.75V17.75H0V15.75H8ZM5 10.75V12.75H0V10.75H5ZM19.5659 5.75H4.43414L12 12.5593L19.5659 5.75Z" fill="currentColor"/>
    </symbol>

    <symbol id='icon-password' viewBox="0 0 24 25" fill="none" xmlns="http://www.w3.org/2000/svg">
        <path d="M12.917 13.75C12.441 16.5877 9.973 18.75 7 18.75C3.68629 18.75 1 16.0637 1 12.75C1 9.43629 3.68629 6.75 7 6.75C9.973 6.75 12.441 8.91229 12.917 11.75H23V13.75H21V17.75H19V13.75H17V17.75H15V13.75H12.917ZM7 16.75C9.20914 16.75 11 14.9591 11 12.75C11 10.5409 9.20914 8.75 7 8.75C4.79086 8.75 3 10.5409 3 12.75C3 14.9591 4.79086 16.75 7 16.75Z" fill="currentColor"/>
    </symbol>

    <symbol id='icon-start' viewBox="0 0 16 15" fill="none" xmlns="http://www.w3.org/2000/svg">
        <path d="M8.00056 12.1734L3.29826 14.8055L4.34848 9.51997L0.39209 5.86124L5.74345 5.22675L8.00056 0.333374L10.2576 5.22675L15.609 5.86124L11.6526 9.51997L12.7028 14.8055L8.00056 12.1734Z" fill="white"/>
    </symbol>

    <symbol id='icon-upload' viewBox="0 0 14 14" fill="none" xmlns="http://www.w3.org/2000/svg">
        <path d="M5.24988 3.96881H6.40457V9.25475C6.40457 9.3235 6.46082 9.37975 6.52957 9.37975H7.46707C7.53582 9.37975 7.59207 9.3235 7.59207 9.25475V3.96881H8.74988C8.85457 3.96881 8.91238 3.8485 8.84832 3.76725L7.09832 1.55162C7.08662 1.53668 7.07168 1.5246 7.05463 1.51629C7.03757 1.50798 7.01885 1.50366 6.99988 1.50366C6.98091 1.50366 6.96218 1.50798 6.94513 1.51629C6.92807 1.5246 6.91313 1.53668 6.90144 1.55162L5.15144 3.76569C5.08738 3.8485 5.14519 3.96881 5.24988 3.96881ZM12.7186 8.786H11.7811C11.7124 8.786 11.6561 8.84225 11.6561 8.911V11.3172H2.34363V8.911C2.34363 8.84225 2.28738 8.786 2.21863 8.786H1.28113C1.21238 8.786 1.15613 8.84225 1.15613 8.911V12.0047C1.15613 12.2813 1.37957 12.5047 1.65613 12.5047H12.3436C12.6202 12.5047 12.8436 12.2813 12.8436 12.0047V8.911C12.8436 8.84225 12.7874 8.786 12.7186 8.786Z" fill="currentColor"/>
    </symbol>


    <symbol id='icon-edit' viewBox="0 0 32 32" fill="none" xmlns="http://www.w3.org/2000/svg">
        <path d="M2 26H30V28H2V26ZM25.4 9C26.2 8.2 26.2 7 25.4 6.2L21.8 2.6C21 1.8 19.8 1.8 19 2.6L4 17.6V24H10.4L25.4 9ZM20.4 4L24 7.6L21 10.6L17.4 7L20.4 4ZM6 22V18.4L16 8.4L19.6 12L9.6 22H6Z" fill="currentColor"/>
    </symbol>

    <symbol id='icon-back' viewBox="0 0 24 25" fill="none" xmlns="http://www.w3.org/2000/svg">
        <path fill-rule="evenodd" clip-rule="evenodd" d="M3.46983 13.0301C3.32938 12.8895 3.25049 12.6988 3.25049 12.5001C3.25049 12.3013 3.32938 12.1107 3.46983 11.9701L9.46983 5.97009C9.53849 5.8964 9.62129 5.8373 9.71329 5.79631C9.80529 5.75532 9.9046 5.73328 10.0053 5.7315C10.106 5.72972 10.206 5.74825 10.2994 5.78597C10.3928 5.82369 10.4776 5.87983 10.5489 5.95105C10.6201 6.02227 10.6762 6.10711 10.714 6.20049C10.7517 6.29388 10.7702 6.39391 10.7684 6.49461C10.7666 6.59532 10.7446 6.69463 10.7036 6.78663C10.6626 6.87863 10.6035 6.96143 10.5298 7.03009L5.80983 11.7501H19.9998C20.1987 11.7501 20.3895 11.8291 20.5302 11.9698C20.6708 12.1104 20.7498 12.3012 20.7498 12.5001C20.7498 12.699 20.6708 12.8898 20.5302 13.0304C20.3895 13.1711 20.1987 13.2501 19.9998 13.2501H5.80983L10.5298 17.9701C10.6035 18.0388 10.6626 18.1216 10.7036 18.2136C10.7446 18.3056 10.7666 18.4049 10.7684 18.5056C10.7702 18.6063 10.7517 18.7063 10.714 18.7997C10.6762 18.8931 10.6201 18.9779 10.5489 19.0491C10.4776 19.1203 10.3928 19.1765 10.2994 19.2142C10.206 19.2519 10.106 19.2705 10.0053 19.2687C9.9046 19.2669 9.80529 19.2449 9.71329 19.2039C9.62129 19.1629 9.53849 19.1038 9.46983 19.0301L3.46983 13.0301Z" fill="currentColor"/>
    </symbol>

</svg>
